HIERARCHY
ROOT Hips
{
 OFFSET 0.000000 0.000000 0.000000
 CHANNELS 6 Xposition Yposition Zposition Yrotation Xrotation Zrotation
 JOINT Chest
 {
  OFFSET 0.000000 9.585900 0.002600
  CHANNELS 3 Yrotation Xrotation Zrotation
  JOINT Chest2
  {
   OFFSET 0.000000 9.601200 -0.005300
   CHANNELS 3 Yrotation Xrotation Zrotation
   JOINT Chest3
   {
    OFFSET 0.000000 9.561800 0.000000
    CHANNELS 3 Yrotation Xrotation Zrotation
    JOINT Chest4
    {
     OFFSET 0.000000 9.552100 0.000000
     CHANNELS 3 Yrotation Xrotation Zrotation
     JOINT Neck
     {
      OFFSET 0.000000 14.453000 0.000000
      CHANNELS 3 Yrotation Xrotation Zrotation
      JOINT Head
      {
       OFFSET 0.000000 8.936500 -0.011300
       CHANNELS 3 Yrotation Xrotation Zrotation
       End Site
       {
        OFFSET 0.000000 17.073600 -0.006000
       }
      }
     }
     JOINT RightCollar
     {
      OFFSET -2.921100 9.558500 0.000000
      CHANNELS 3 Yrotation Xrotation Zrotation
      JOINT RightShoulder
      {
       OFFSET -13.519700 0.000000 0.000000
       CHANNELS 3 Yrotation Xrotation Zrotation
       JOINT RightElbow
       {
        OFFSET 0.000000 -29.696600 0.000000
        CHANNELS 3 Yrotation Xrotation Zrotation
        JOINT RightWrist
        {
         OFFSET 0.000000 -24.004700 0.000000
         CHANNELS 3 Yrotation Xrotation Zrotation
         End Site
         {
          OFFSET 0.000000 -17.728500 0.000000
         }
        }
       }
      }
     }
     JOINT LeftCollar
     {
      OFFSET 2.921100 9.558500 0.000000
      CHANNELS 3 Yrotation Xrotation Zrotation
      JOINT LeftShoulder
      {
       OFFSET 13.519700 0.000000 0.000000
       CHANNELS 3 Yrotation Xrotation Zrotation
       JOINT LeftElbow
       {
        OFFSET 0.000000 -29.696600 0.000000
        CHANNELS 3 Yrotation Xrotation Zrotation
        JOINT LeftWrist
        {
         OFFSET 0.000000 -24.004700 0.000000
         CHANNELS 3 Yrotation Xrotation Zrotation
         End Site
         {
          OFFSET 0.000000 -17.728500 0.000000
         }
        }
       }
      }
     }
    }
   }
  }
 }
 JOINT RightHip
 {
  OFFSET -7.771700 -0.012900 -0.001300
  CHANNELS 3 Yrotation Xrotation Zrotation
  JOINT RightKnee
  {
   OFFSET 0.000000 -40.869800 0.001200
   CHANNELS 3 Yrotation Xrotation Zrotation
   JOINT RightAnkle
   {
    OFFSET 0.000000 -39.717900 0.002100
    CHANNELS 3 Yrotation Xrotation Zrotation
    JOINT RightToe
    {
     OFFSET 0.000000 -4.965400 11.033500
     CHANNELS 3 Yrotation Xrotation Zrotation
     End Site
     {
      OFFSET 0.000000 -1.423100 5.872300
     }
    }
   }
  }
 }
 JOINT LeftHip
 {
  OFFSET 7.771700 -0.012900 -0.001300
  CHANNELS 3 Yrotation Xrotation Zrotation
  JOINT LeftKnee
  {
   OFFSET 0.000000 -40.869800 0.001200
   CHANNELS 3 Yrotation Xrotation Zrotation
   JOINT LeftAnkle
   {
    OFFSET 0.000000 -39.717900 0.002100
    CHANNELS 3 Yrotation Xrotation Zrotation
    JOINT LeftToe
    {
     OFFSET 0.000000 -4.965400 11.033500
     CHANNELS 3 Yrotation Xrotation Zrotation
     End Site
     {
      OFFSET 0.000000 -1.423100 5.872300
     }
    }
   }
  }
 }
}
MOTION
Frames: 6
Frame Time: 0.008333
28.377448 49.648656 63.278651 171.852283 -33.081985 -7.294712 7.493355 18.407881 7.169823 0.833215 2.361601 0.627350 1.430939 3.986746 1.105974 6.389363 15.938025 5.164828 -2.463821 15.143160 1.021732 -4.983447 -7.588827 2.820837 -1.740804 -2.111754 -3.415437 2.142101 -1.837485 -0.768536 61.872847 -79.654211 -69.443270 0.155698 -5.240378 -6.860001 -8.932379 -0.938396 -0.317047 5.347973 -3.681908 -1.524277 -113.229591 -79.473148 122.587658 12.164204 3.561911 -11.681155 -0.148322 -47.158112 11.256017 -111.120834 81.520245 -98.235743 -0.227594 -12.939756 -4.134575 -0.262155 0.987291 -0.149915 -9.816915 -51.320740 17.856754 -155.895904 80.333536 -162.899755 2.795257 -17.480490 7.543209 -0.282085 -0.678462 -0.091085
28.379014 49.663988 63.269293 171.894655 -33.074646 -7.299802 7.474469 18.447978 7.179305 0.834931 2.366828 0.627722 1.426064 3.982235 1.100925 6.394498 15.971397 5.169724 -2.470722 15.160224 1.019728 -4.994746 -7.556821 2.818878 -1.730922 -2.156709 -3.442822 2.138519 -1.845250 -0.761333 62.465019 -79.659710 -70.048866 0.262559 -4.821821 -6.350977 -8.954376 -0.940336 -0.315843 5.357908 -3.749413 -1.543389 -112.428783 -79.069630 121.931145 12.003389 3.700566 -12.193570 -0.164476 -47.152976 11.221924 -111.272947 81.510205 -98.359617 -0.250460 -12.995009 -4.170109 -0.228940 1.006924 -0.125612 -9.816262 -51.321350 17.864136 -155.694052 80.321853 -162.748625 2.803497 -17.484753 7.587032 -0.317627 -0.685184 -0.086701
28.383361 49.679759 63.259317 171.953164 -33.078614 -7.326561 7.436632 18.479401 7.189584 0.844421 2.393132 0.639386 1.411848 3.948958 1.083712 6.414826 16.032029 5.190035 -2.477453 15.180257 1.019115 -5.006150 -7.519299 2.819230 -1.735351 -2.218691 -3.465804 2.148272 -1.848514 -0.756285 63.048274 -79.663880 -70.645659 0.387390 -4.379186 -5.806158 -8.975852 -0.980730 -0.319202 5.371875 -3.762871 -1.571377 -111.738277 -78.648974 121.392074 11.773539 3.949577 -12.897589 -0.332700 -47.093835 11.300972 -111.195361 81.515245 -98.342720 -0.272403 -13.100770 -4.203016 -0.194111 1.073309 -0.110013 -9.849766 -51.308638 17.870269 -155.639391 80.318216 -162.717493 2.800691 -17.488796 7.614579 -0.345975 -0.688361 -0.096030
28.385439 49.691818 63.252993 171.979920 -33.061640 -7.323041 7.417283 18.489521 7.182916 0.854012 2.421000 0.650442 1.432837 4.002919 1.102789 6.384375 15.988091 5.159958 -2.477785 15.224873 1.025105 -5.020478 -7.473571 2.824613 -1.709843 -2.244639 -3.495836 2.114414 -1.876122 -0.742826 63.657030 -79.660526 -71.249667 0.525660 -3.939604 -5.249218 -8.997002 -1.002760 -0.322289 5.375915 -3.783657 -1.623508 -111.024799 -78.209921 120.855473 11.459663 4.317643 -13.807554 -0.413470 -47.090128 11.324622 -111.282278 81.517681 -98.457713 -0.291743 -13.169331 -4.247479 -0.165564 1.105094 -0.082357 -9.833403 -51.325360 17.869207 -155.542226 80.311182 -162.644955 2.766226 -17.488626 7.650733 -0.343053 -0.692423 -0.100704
28.385969 49.701742 63.248023 171.997305 -33.039550 -7.305437 7.445661 18.549229 7.208586 0.855334 2.431156 0.651579 1.421665 3.988696 1.091450 6.375234 15.991839 5.151854 -2.487975 15.254326 1.030513 -5.040283 -7.418165 2.836907 -1.693089 -2.300046 -3.532017 2.121210 -1.896927 -0.723230 64.290500 -79.641018 -71.919135 0.672387 -3.523971 -4.703687 -9.058700 -0.965373 -0.311530 5.410745 -3.898727 -1.669408 -110.410392 -77.810471 120.418779 11.071256 4.788206 -14.874476 -0.549716 -47.105605 11.381011 -111.452217 81.520123 -98.708293 -0.301423 -13.175848 -4.271998 -0.152987 1.081133 -0.073686 -9.757678 -51.357277 17.843998 -155.388744 80.298438 -162.498008 2.686168 -17.485987 7.695997 -0.323468 -0.693931 -0.091967
28.383411 49.708537 63.245860 171.990278 -33.002527 -7.259322 7.476323 18.571158 7.199241 0.856696 2.439219 0.652685 1.417151 3.985545 1.087614 6.383668 16.031358 5.159490 -2.508770 15.266947 1.034097 -5.066506 -7.356184 2.854281 -1.694168 -2.393166 -3.567909 2.186002 -1.909218 -0.728369 64.850198 -79.623671 -72.558711 0.827092 -3.142714 -4.179878 -9.123931 -0.997271 -0.305741 5.502537 -3.986178 -1.775424 -109.877575 -77.379688 119.978764 10.637624 5.315094 -16.010545 -0.648958 -47.148512 11.404767 -111.666004 81.526971 -99.004881 -0.286434 -13.171087 -4.291222 -0.164577 1.058523 -0.071539 -9.663215 -51.405944 17.794915 -155.319825 80.294706 -162.438230 2.627420 -17.486526 7.718821 -0.314511 -0.692226 -0.075161
